<svg xmlns="http://www.w3.org/2000/svg" xml:space="preserve" version="1.1" style="shape-rendering:geometricPrecision; text-rendering:geometricPrecision; image-rendering:optimizeQuality; fill-rule:evenodd; clip-rule:evenodd"
    xmlns:xlink="http://www.w3.org/1999/xlink" viewBox="1644.93 2415.37 5209.62 2090.57">    <!-- viewBox="0 0 8500 7000" -->
    <defs>
        <style type="text/css">                  
        .fil0 {fill:#FEFEFE}     
        .fil2 {fill:#0B56A7}     
        .fil1 {fill:#0B56A7;fill-rule:nonzero}             
        </style>
    </defs>
    <g id="Layer_x0020_1">
        <metadata id="CorelCorpID_0Corel-Layer"/>
        <g id="_1951850840944">            <!-- <polygon class="fil0" points="-0,0 8500,0 8500,7000 -0,7000 "/> -->
            <path class="fil1" d="M2665.37 3577.98c33.83,27.19 76.7,43.41 123.43,43.41 11.05,0 21.94,-0.93 32.52,-2.78 22.01,-3.55 42.87,-10.89 61.79,-21.17 18,-9.89 34.37,-22.4 48.43,-37.15 5.8,-5.94 11.2,-12.35 16.07,-19.08 24.41,-32.83 38.85,-73.45 38.85,-117.48 0,-27.42 -5.64,-53.6 -15.76,-77.31 -8.57,-20.08 -20.39,-38.47 -34.76,-54.46 -36.23,-40.4 -88.75,-65.81 -147.15,-65.81 -108.98,0 -197.66,88.6 -197.66,197.58 0,24.26 4.41,47.43 12.44,68.9 12.59,33.75 34.14,63.18 61.8,85.35zm217.77 158.04c16.76,-5.02 32.91,-11.43 48.43,-19 22.09,-10.81 42.87,-24.02 61.79,-39.39 38.31,-30.97 69.52,-70.37 90.68,-115.48 19.85,-42.02 30.9,-88.98 30.9,-138.42 0,-49.43 -11.04,-96.39 -30.9,-138.41 -20.31,-43.26 -49.97,-81.41 -86.28,-111.77 -18.93,-15.83 -39.63,-29.58 -61.8,-40.78 -16.84,-8.57 -34.52,-15.68 -52.83,-21.24 -19.85,-6.02 -40.55,-10.19 -61.8,-12.28 -10.66,-1.08 -21.55,-1.62 -32.52,-1.62 -43.64,0 -85.35,8.65 -123.43,24.25 -21.86,8.96 -42.56,20.31 -61.79,33.6 -19.16,13.28 -36.84,28.5 -52.76,45.49 -25.72,27.42 -46.73,59.32 -61.79,94.39 -2.17,5.02 -4.17,10.04 -6.1,15.22 -13.06,35.22 -20.24,73.38 -20.24,113.16 0,0.55 0.04,1.08 0.05,1.62 -0.26,-0.53 -0.54,-1.05 -0.79,-1.58l0 465.7c0,16.36 -13.26,29.61 -29.61,29.61 -16.35,0 -29.61,-13.26 -29.61,-29.61l0 -895.7c0,-23.83 19.31,-43.14 43.14,-43.14 23.82,0 43.14,19.31 43.14,43.14l0 181.32c18.31,-22.09 39.08,-42.17 61.79,-59.63l0 -121.69c0,-57.95 -46.98,-104.93 -104.93,-104.93 -57.96,0 -104.93,46.98 -104.93,104.93l0 894.93c0,50.91 41.27,92.17 92.17,92.17 50.91,0 92.18,-41.27 92.18,-92.17l0 -273.19c0.1,0.13 0.19,0.27 0.28,0.4l0 -168c-0.7,-7.96 -1.08,-16.07 -1.08,-24.18 0,-7.8 0.31,-15.6 1.08,-23.25 1.54,-18.61 5.09,-36.69 10.43,-54.07 4.02,-12.98 8.96,-25.57 14.83,-37.7 42.79,-88.28 133.4,-149.31 237.98,-149.31 11.04,0 21.86,0.7 32.52,2.01 21.47,2.63 42.17,7.88 61.8,15.37 18.69,7.18 36.46,16.45 52.83,27.42 23.56,15.91 44.41,35.38 61.8,57.78 34.68,44.72 55.38,100.88 55.38,161.74 0,63.42 -22.48,121.66 -59.79,167.31 -17.53,21.39 -38.39,40.09 -61.79,55.15 -15.14,9.73 -31.36,18 -48.43,24.56 -19.62,7.49 -40.32,12.74 -61.8,15.37 -10.66,1.31 -21.47,2.01 -32.52,2.01 -44.57,0 -86.59,-11.05 -123.43,-30.66 -22.79,-12.05 -49.77,-29.51 -68,-47.51l0 74.21c0,0 0,0 0,0l0 185.78c0,86.6 -70.2,156.8 -156.8,156.8l-0 0c-86.59,0 -156.8,-70.2 -156.8,-156.8l0 -861.63c0,-86.6 70.2,-156.8 156.8,-156.8l0 0c86.59,0 156.8,70.2 156.8,156.8l0 72.69c19.7,-10.58 40.32,-19.62 61.79,-26.73l0 -45.96c0,-120.72 -97.87,-218.59 -218.59,-218.59l-0 0c-120.72,0 -218.59,97.87 -218.59,218.59l0 861.63c0,120.72 97.87,218.59 218.59,218.59l0 0c120.72,0 218.59,-97.87 218.59,-218.59l0 -146.91c2.09,0.9 4.19,1.8 6.2,2.63 38.08,15.6 79.79,24.25 123.43,24.25 10.96,0 21.86,-0.54 32.52,-1.62 21.24,-2.08 41.94,-6.26 61.8,-12.28zm156.81 -946.28l0 0c-120.75,0 -218.63,97.89 -218.63,218.63l0 27.3c21.09,1.7 41.79,5.1 61.79,10.12l0 -37.42c0,-86.62 70.22,-156.84 156.84,-156.84 86.62,0 156.84,70.22 156.84,156.84l0 861.55c0,86.62 -70.22,156.84 -156.84,156.84 -86.62,0 -156.84,-70.22 -156.84,-156.84l0 -68.17c-20,5.02 -40.7,8.42 -61.79,10.12l0 58.05c0,120.75 97.88,218.63 218.63,218.63l0 0c120.75,0 218.63,-97.88 218.63,-218.63l0 -861.55c0,-120.75 -97.89,-218.63 -218.63,-218.63zm105.86 478.2l0 -274.17c0,-57.95 -46.98,-104.93 -104.93,-104.93 -57.95,0 -104.93,46.98 -104.93,104.93l0 69.32c21.63,8.73 42.33,19.46 61.79,31.9l0 -101.22c0,-23.83 19.31,-43.14 43.14,-43.14 23.83,0 43.14,19.31 43.14,43.14l0 175.99c25.26,29.28 46.19,62.26 61.79,98.17zm-214.27 518.29l0 87.51c0,59.17 47.97,107.13 107.13,107.13 59.17,0 107.13,-47.96 107.13,-107.13l0 -294.13c-15.6,35.84 -36.54,68.9 -61.79,98.17l0 195.96c0,25.04 -20.3,45.34 -45.34,45.34 -25.04,0 -45.34,-20.3 -45.34,-45.34l0 -118.49c-19.54,12.13 -40.17,22.48 -61.8,30.98zm-142.74 -498.28l0 0c74.93,0 135.87,60.94 135.87,135.79 0,38.31 -15.91,73 -41.56,97.63 -16.92,16.45 -38.16,28.5 -61.79,34.3 -10.43,2.55 -21.32,3.94 -32.52,3.94 -54.69,0 -101.96,-32.44 -123.43,-79.17 -3.01,-6.41 -5.48,-13.06 -7.34,-19.93 -3.32,-11.66 -5.1,-24.02 -5.1,-36.77 0,-74.84 60.94,-135.79 135.87,-135.79z"/>
            <path class="fil2" d="M2790.96 3350.83c35.73,0 64.7,28.96 64.7,64.7 0,35.73 -28.97,64.7 -64.7,64.7 -35.73,0 -64.7,-28.97 -64.7,-64.7 0,-35.73 28.97,-64.7 64.7,-64.7z"/>
            <path class="fil2" d="M3258.59 4139.43c-157.74,98.7 -240.91,226.04 -551.29,219.62 -369.08,-7.62 -763.02,-259.28 -860.09,-682.61 -159.23,-694.44 700.58,-1466.58 1544.81,-974.62 225.98,131.68 300.96,244.96 450.95,474.98 -6.45,-80.67 -151.9,-284.3 -194.71,-335.8 -220.75,-265.6 -541.26,-410.74 -850.35,-424.6 -497.3,-22.29 -1016.39,319.33 -1126.38,855.49 -12.34,60.14 -14.96,90.85 -21.5,148.92 -60.88,540.77 431.91,1131.35 1022.5,1082.27 102.83,-8.54 213.17,-38.71 319.79,-99.72 142.22,-81.39 183.57,-147.84 266.26,-263.94z"/>
            <path class="fil1" d="M3700.22 3435.44l0 126.39 -189.22 0 0 -126.39 -46.56 0 0 322.08 46.56 0 0 -149.14 189.22 0 0 149.14 46.56 0 0 -322.08 -46.56 0zm254.64 45.58c63.39,0 114.89,51.58 114.89,114.97 0,63.4 -51.5,114.97 -114.89,114.97 -63.4,0 -114.97,-51.57 -114.97,-114.97 0,-63.39 51.57,-114.97 114.97,-114.97zm-161.53 114.97c0,89.22 72.3,161.53 161.53,161.53 89.14,0 161.44,-72.3 161.44,-161.53 0.08,-89.14 -72.3,-161.53 -161.44,-161.53 -89.22,0 -161.53,72.39 -161.53,161.53zm610.4 -161.28l0 178.2c0,52.55 -41.37,96.51 -93.84,98.05 -1.13,0 -2.27,0 -3.4,0 -1.22,0 -2.43,0 -3.56,-0.08 -52.55,-1.54 -93.84,-45.5 -93.84,-98.05l0 -178.13 -46.56 0 0 205.09c0,24.37 8.82,48.01 25.34,65.91 6.48,6.96 13.6,13.36 21.21,19.11 27.04,20.56 60.8,32.71 97.4,32.71 36.52,0 70.2,-12.15 97.24,-32.55 7.53,-5.75 14.57,-12.06 21.05,-19.03 16.6,-17.81 25.5,-41.54 25.5,-65.99l0 -205.25 -46.56 0zm286.05 138.13l-92.54 0c-2.67,-0.24 -5.34,-0.4 -8.02,-0.4 -1.54,0 -3.16,0.08 -4.69,0.16 -23.16,-2.27 -41.21,-21.86 -41.21,-45.59 0,-25.26 20.48,-45.74 45.74,-45.74l102.26 0c23.72,0.81 42.91,19.67 44.21,43.32l46.56 0c-0.41,-15.79 -4.78,-30.53 -12.15,-43.32 0,-0.08 0,-0.08 0,-0.08 -15.63,-27.13 -44.53,-45.67 -77.89,-46.48 -0.81,-0.08 -1.62,-0.08 -2.43,-0.08 -0.81,0 -1.62,0 -2.43,0.08l-98.13 0c-34.33,0 -64.29,18.7 -80.16,46.56 -7.77,13.44 -12.14,29.07 -12.14,45.74 0,16.68 4.37,32.31 12.14,45.83 3.81,6.72 8.58,12.96 13.93,18.54 16.76,17.24 40.24,28.02 66.23,28.02l100.72 0c25.26,0 45.75,20.48 45.75,45.74 0,25.26 -20.48,45.83 -45.75,45.83l-100.56 0c-24.53,0 -44.53,-19.19 -45.91,-43.4l-46.56 0c0.41,15.79 4.78,30.52 12.14,43.4 15.95,27.85 45.99,46.56 80.32,46.56l100.56 0c34.33,0 64.29,-18.7 80.16,-46.56 7.77,-13.52 12.15,-29.15 12.15,-45.83 0,-16.6 -4.37,-32.31 -12.15,-45.74 -15.87,-27.85 -45.83,-46.56 -80.16,-46.56l0 0zm190.68 34.9l207.6 0 0 -46.56 -207.6 0 0 -56.52 -46.56 0 0 252.86 285.41 0 0 -46.56 -238.85 0 0 -103.23zm-46.56 -172.94l0 46.56 285.41 0 0 -46.56 -285.41 0zm706.1 46.23c63.39,0 114.89,51.58 114.89,114.97 0,63.4 -51.5,114.97 -114.89,114.97 -63.4,0 -114.97,-51.57 -114.97,-114.97 0,-63.39 51.57,-114.97 114.97,-114.97zm-161.53 114.97c0,89.22 72.3,161.53 161.53,161.53 89.14,0 161.44,-72.3 161.44,-161.53 0.08,-89.14 -72.3,-161.53 -161.44,-161.53 -89.22,0 -161.53,72.39 -161.53,161.53zm415.76 -91.33l-46.56 0 0 252.86 46.56 0 0 -149.79 207.52 0 0 -46.56 -207.52 0 0 -56.52zm238.77 -23.31l0 -46.56 -285.32 0 0 46.56 285.32 0zm517.94 39.51c0,-45.91 -36.03,-83.48 -81.37,-85.83l0.08 -0.16 -177.88 0 0 322.65 46.56 0 0 -150.35 134.08 0 -0.65 -0.57c44.29,-3.48 79.19,-40.56 79.19,-85.74zm-85.98 39.43l-126.63 0 0 -78.7 123.23 0c0.16,0 0.41,-0.08 0.57,-0.08 0.97,-0.08 1.86,-0.08 2.83,-0.08 21.7,0 39.43,17.65 39.43,39.43 0,21.78 -17.73,39.43 -39.43,39.43l0 0zm331.96 -126.39l-89.63 122.5 -0.08 0 -89.63 -122.5 -57.65 0 114.89 157 3.48 4.78 0.16 0.24 4.37 5.99 1.21 1.62 0 154 46.48 0 0 -154.08 1.13 -1.54 4.37 -5.99 0.16 -0.24 3.48 -4.78 114.89 -157 -57.65 0z"/>
        </g>
    </g>
</svg>